<svg width="3909" height="1091" viewBox="0 0 3909 1091" fill="none" xmlns="http://www.w3.org/2000/svg">
<g filter="url(#filter0_d)">
<path d="M1516.22 723H1453.45L1358.94 590.905V723H1303.84V462.459H1358.94V588.715L1452.36 462.459H1511.11L1416.23 587.621L1516.22 723ZM1630.02 462.459C1664.81 462.459 1691.08 467.324 1708.84 477.055C1726.6 486.786 1735.48 503.936 1735.48 528.506C1735.48 543.346 1731.95 555.874 1724.89 566.091C1718.08 576.309 1708.23 582.512 1695.34 584.701V586.526C1704.1 588.229 1712 591.27 1719.06 595.649C1726.11 600.027 1731.71 606.352 1735.84 614.624C1739.98 622.895 1742.05 633.842 1742.05 647.465C1742.05 671.062 1733.53 689.55 1716.5 702.93C1699.47 716.31 1676.12 723 1646.44 723H1549.01V462.459H1630.02ZM1636.22 565.726C1652.28 565.726 1663.35 563.172 1669.43 558.063C1675.75 552.955 1678.92 545.535 1678.92 535.804C1678.92 525.83 1675.27 518.654 1667.97 514.275C1660.67 509.896 1649.12 507.707 1633.3 507.707H1604.11V565.726H1636.22ZM1604.11 609.515V677.387H1640.24C1656.78 677.387 1668.33 674.225 1674.9 667.9C1681.47 661.331 1684.76 652.695 1684.76 641.991C1684.76 632.261 1681.35 624.476 1674.54 618.637C1667.97 612.556 1655.93 609.515 1638.41 609.515H1604.11ZM1953.64 723L1934.67 660.966H1839.79L1820.82 723H1761.34L1853.3 461.364H1920.8L2013.12 723H1953.64ZM1902.56 554.05C1901.34 549.914 1899.76 544.684 1897.81 538.359C1895.87 532.034 1893.92 525.587 1891.98 519.019C1890.03 512.45 1888.45 506.734 1887.23 501.868C1886.02 506.734 1884.31 512.815 1882.12 520.113C1880.18 527.168 1878.23 533.98 1876.28 540.548C1874.58 546.873 1873.24 551.374 1872.27 554.05L1853.66 614.624H1921.53L1902.56 554.05ZM2252.29 723H2197.19V508.437H2133.33C2131.87 519.627 2130.29 531.79 2128.59 544.927C2127.13 558.063 2125.43 571.443 2123.48 585.066C2121.78 598.446 2119.95 611.218 2118.01 623.381C2116.06 635.301 2114.12 645.884 2112.17 655.128C2109.01 670.211 2104.75 683.104 2099.4 693.808C2094.29 704.512 2087.11 712.661 2077.87 718.256C2068.87 723.851 2057.07 726.649 2042.47 726.649C2032.98 726.649 2024.23 725.311 2016.2 722.635V677.387C2019.36 678.36 2022.4 679.212 2025.32 679.941C2028.48 680.671 2031.89 681.036 2035.54 681.036C2042.59 681.036 2047.95 677.387 2051.59 670.089C2055.49 662.548 2059.38 648.56 2063.27 628.125C2064.73 620.34 2066.8 608.177 2069.48 591.635C2072.15 575.092 2075.07 555.752 2078.23 533.615C2081.64 511.234 2084.8 487.515 2087.72 462.459H2252.29V723ZM2318.02 462.459H2367.64V588.35C2367.64 594.432 2367.52 601.244 2367.28 608.785C2367.04 616.326 2366.79 623.746 2366.55 631.044C2366.31 638.099 2366.06 644.302 2365.82 649.654C2365.58 654.763 2365.33 658.29 2365.09 660.237H2366.18L2486.6 462.459H2552.65V723H2503.39V597.838C2503.39 591.27 2503.51 584.093 2503.75 576.309C2504 568.281 2504.24 560.618 2504.48 553.32C2504.97 546.022 2505.33 539.697 2505.58 534.345C2506.06 528.75 2506.43 525.1 2506.67 523.398H2505.21L2384.43 723H2318.02V462.459ZM2718.77 723H2663.67V508.437H2592.88V462.459H2789.56V508.437H2718.77V723ZM2979.71 723H2829.74V462.459H2979.71V507.707H2884.84V564.997H2973.15V610.245H2884.84V677.387H2979.71V723ZM3134.28 723H3079.18V508.437H3008.38V462.459H3205.07V508.437H3134.28V723ZM3334.07 634.693V613.164H3442.08V634.693H3334.07ZM3706.81 723L3644.04 518.654H3642.58C3642.83 523.519 3643.19 530.817 3643.68 540.548C3644.17 550.279 3644.65 560.739 3645.14 571.93C3645.62 582.877 3645.87 592.851 3645.87 601.852V723H3596.61V462.459H3671.78L3733.45 661.696H3734.54L3799.86 462.459H3875.03V723H3823.58V599.662C3823.58 591.391 3823.7 581.904 3823.94 571.2C3824.43 560.496 3824.79 550.4 3825.04 540.913C3825.52 531.182 3825.89 523.884 3826.13 519.019H3824.67L3757.53 723H3706.81Z" fill="white"/>
</g>
<path d="M546.919 44.01C474.276 46.0606 66.5354 346.001 45.7386 414.844C24.9417 483.688 196.591 1001.86 247.558 1026.46C298.525 1051.07 787.404 1054.29 844.523 1026.46C901.642 998.636 1066.85 474.314 1049.56 414.844C1032.28 355.374 619.563 41.9594 546.919 44.01Z" fill="white" stroke="#C72A31" stroke-width="87.8751"/>
<path d="M618.585 850.398L491.069 510.718H488.899C489.984 521.932 490.888 537.126 491.612 556.298C492.335 575.109 492.697 594.824 492.697 615.444V850.398H447.66V462.968H519.828L639.204 780.4H641.375L762.922 462.968H834.548V850.398H786.255V612.188C786.255 593.377 786.616 574.747 787.34 556.298C788.425 537.849 789.329 522.837 790.053 511.261H787.882L658.739 850.398H618.585Z" fill="#00AEF2"/>
<path d="M618.585 850.398L615.522 851.548L616.318 853.67H618.585V850.398ZM491.069 510.718L494.132 509.568L493.336 507.446H491.069V510.718ZM488.899 510.718V507.446H485.295L485.642 511.033L488.899 510.718ZM491.612 556.298L488.342 556.422L488.342 556.424L491.612 556.298ZM492.697 850.398V853.67H495.969V850.398H492.697ZM447.66 850.398H444.388V853.67H447.66V850.398ZM447.66 462.968V459.696H444.388V462.968H447.66ZM519.828 462.968L522.89 461.816L522.093 459.696H519.828V462.968ZM639.204 780.4L636.142 781.552L636.939 783.672H639.204V780.4ZM641.375 780.4V783.672H643.626L644.43 781.57L641.375 780.4ZM762.922 462.968V459.696H760.671L759.866 461.798L762.922 462.968ZM834.548 462.968H837.82V459.696H834.548V462.968ZM834.548 850.398V853.67H837.82V850.398H834.548ZM786.255 850.398H782.983V853.67H786.255V850.398ZM787.34 556.298L784.074 556.106L784.072 556.138L784.071 556.17L787.34 556.298ZM790.053 511.261L793.318 511.465L793.536 507.989H790.053V511.261ZM787.882 511.261V507.989H785.627L784.825 510.097L787.882 511.261ZM658.739 850.398V853.67H660.994L661.796 851.563L658.739 850.398ZM621.648 849.249L494.132 509.568L488.006 511.868L615.522 851.548L621.648 849.249ZM491.069 507.446H488.899V513.99H491.069V507.446ZM485.642 511.033C486.718 522.155 487.62 537.275 488.342 556.422L494.881 556.175C494.157 536.976 493.249 521.71 492.155 510.403L485.642 511.033ZM488.342 556.424C489.064 575.189 489.425 594.862 489.425 615.444H495.969C495.969 594.786 495.606 575.029 494.881 556.173L488.342 556.424ZM489.425 615.444V850.398H495.969V615.444H489.425ZM492.697 847.127H447.66V853.67H492.697V847.127ZM450.931 850.398V462.968H444.388V850.398H450.931ZM447.66 466.239H519.828V459.696H447.66V466.239ZM516.766 464.119L636.142 781.552L642.267 779.249L522.89 461.816L516.766 464.119ZM639.204 783.672H641.375V777.129H639.204V783.672ZM644.43 781.57L765.977 464.138L759.866 461.798L638.32 779.23L644.43 781.57ZM762.922 466.239H834.548V459.696H762.922V466.239ZM831.276 462.968V850.398H837.82V462.968H831.276ZM834.548 847.127H786.255V853.67H834.548V847.127ZM789.526 850.398V612.188H782.983V850.398H789.526ZM789.526 612.188C789.526 593.419 789.887 574.832 790.609 556.426L784.071 556.17C783.345 574.663 782.983 593.335 782.983 612.188H789.526ZM790.606 556.49C791.691 538.043 792.595 523.035 793.318 511.465L786.788 511.057C786.064 522.638 785.159 537.655 784.074 556.106L790.606 556.49ZM790.053 507.989H787.882V514.533H790.053V507.989ZM784.825 510.097L655.681 849.234L661.796 851.563L790.94 512.425L784.825 510.097ZM658.739 847.127H618.585V853.67H658.739V847.127Z" fill="#00AEF2"/>
<path d="M676.682 854H549.043L356.843 585.365V854H244.788V324.15H356.843V580.912L546.817 324.15H666.293L473.35 578.686L676.682 854Z" fill="#C72A31"/>
<path d="M618.585 850.398L491.069 510.718H488.899C489.984 521.932 490.888 537.126 491.612 556.298C492.335 575.109 492.697 594.824 492.697 615.444V850.398H447.66V462.968H519.828L639.204 780.4H641.375L762.922 462.968H834.548V850.398H786.255V612.188C786.255 593.377 786.616 574.747 787.34 556.298C788.425 537.849 789.329 522.837 790.053 511.261H787.882L658.739 850.398H618.585Z" fill="#00AEF2"/>
<path d="M618.585 850.398L615.522 851.548L616.318 853.67H618.585V850.398ZM491.069 510.718L494.132 509.568L493.336 507.446H491.069V510.718ZM488.899 510.718V507.446H485.295L485.642 511.033L488.899 510.718ZM491.612 556.298L488.342 556.422L488.342 556.424L491.612 556.298ZM492.697 850.398V853.67H495.969V850.398H492.697ZM447.66 850.398H444.388V853.67H447.66V850.398ZM447.66 462.968V459.696H444.388V462.968H447.66ZM519.828 462.968L522.89 461.816L522.093 459.696H519.828V462.968ZM639.204 780.4L636.142 781.552L636.939 783.672H639.204V780.4ZM641.375 780.4V783.672H643.626L644.43 781.57L641.375 780.4ZM762.922 462.968V459.696H760.671L759.866 461.798L762.922 462.968ZM834.548 462.968H837.82V459.696H834.548V462.968ZM834.548 850.398V853.67H837.82V850.398H834.548ZM786.255 850.398H782.983V853.67H786.255V850.398ZM787.34 556.298L784.074 556.106L784.072 556.138L784.071 556.17L787.34 556.298ZM790.053 511.261L793.318 511.465L793.536 507.989H790.053V511.261ZM787.882 511.261V507.989H785.627L784.825 510.097L787.882 511.261ZM658.739 850.398V853.67H660.994L661.796 851.563L658.739 850.398ZM621.648 849.249L494.132 509.568L488.006 511.868L615.522 851.548L621.648 849.249ZM491.069 507.446H488.899V513.99H491.069V507.446ZM485.642 511.033C486.718 522.155 487.62 537.275 488.342 556.422L494.881 556.175C494.157 536.976 493.249 521.71 492.155 510.403L485.642 511.033ZM488.342 556.424C489.064 575.189 489.425 594.862 489.425 615.444H495.969C495.969 594.786 495.606 575.029 494.881 556.173L488.342 556.424ZM489.425 615.444V850.398H495.969V615.444H489.425ZM492.697 847.127H447.66V853.67H492.697V847.127ZM450.931 850.398V462.968H444.388V850.398H450.931ZM447.66 466.239H519.828V459.696H447.66V466.239ZM516.766 464.119L636.142 781.552L642.267 779.249L522.89 461.816L516.766 464.119ZM639.204 783.672H641.375V777.129H639.204V783.672ZM644.43 781.57L765.977 464.138L759.866 461.798L638.32 779.23L644.43 781.57ZM762.922 466.239H834.548V459.696H762.922V466.239ZM831.276 462.968V850.398H837.82V462.968H831.276ZM834.548 847.127H786.255V853.67H834.548V847.127ZM789.526 850.398V612.188H782.983V850.398H789.526ZM789.526 612.188C789.526 593.419 789.887 574.832 790.609 556.426L784.071 556.17C783.345 574.663 782.983 593.335 782.983 612.188H789.526ZM790.606 556.49C791.691 538.043 792.595 523.035 793.318 511.465L786.788 511.057C786.064 522.638 785.159 537.655 784.074 556.106L790.606 556.49ZM790.053 507.989H787.882V514.533H790.053V507.989ZM784.825 510.097L655.681 849.234L661.796 851.563L790.94 512.425L784.825 510.097ZM658.739 847.127H618.585V853.67H658.739V847.127Z" fill="#00AEF2"/>
<path d="M676.682 854H549.043L356.843 585.365V854H244.788V324.15H356.843V580.912L546.817 324.15H666.293L473.35 578.686L676.682 854Z" fill="#C72A31"/>
<defs>
<filter id="filter0_d" x="1273.83" y="447.358" width="2631.21" height="325.309" filterUnits="userSpaceOnUse" color-interpolation-filters="sRGB">
<feFlood flood-opacity="0" result="BackgroundImageFix"/>
<feColorMatrix in="SourceAlpha" type="matrix" values="0 0 0 0 0 0 0 0 0 0 0 0 0 0 0 0 0 0 127 0" result="hardAlpha"/>
<feOffset dy="16.0063"/>
<feGaussianBlur stdDeviation="15.0059"/>
<feComposite in2="hardAlpha" operator="out"/>
<feColorMatrix type="matrix" values="0 0 0 0 0 0 0 0 0 0 0 0 0 0 0 0 0 0 0.25 0"/>
<feBlend mode="normal" in2="BackgroundImageFix" result="effect1_dropShadow"/>
<feBlend mode="normal" in="SourceGraphic" in2="effect1_dropShadow" result="shape"/>
</filter>
</defs>
</svg>
